<svg xmlns="http://www.w3.org/2000/svg" viewBox="0 0 1600 900" width="1600" height="900"><defs>
  <linearGradient id="dayLight" x1="0" y1="0" x2="1" y2="1">
    <stop offset="0" stop-color="#FFF8E7" stop-opacity=".85"/>
    <stop offset="1" stop-color="#FFF8E7" stop-opacity="0"/>
  </linearGradient>
  <linearGradient id="glassG" x1="0" y1="0" x2="1" y2="1">
    <stop offset="0" stop-color="#DFF1FA"/><stop offset="1" stop-color="#B8DCEC"/>
  </linearGradient>
  <radialGradient id="vign" cx="50%" cy="45%" r="75%">
    <stop offset="55%" stop-color="#000" stop-opacity="0"/>
    <stop offset="100%" stop-color="#000" stop-opacity=".20"/>
  </radialGradient>
  <filter id="soft"><feGaussianBlur stdDeviation="10"/></filter>
  <filter id="soft3"><feGaussianBlur stdDeviation="3"/></filter>
  <filter id="grain">
    <feTurbulence type="fractalNoise" baseFrequency="0.9" numOctaves="3"/>
    <feColorMatrix type="saturate" values="0"/>
  </filter>
  
</defs><rect width="1600" height="900" fill="#A6B0A8"/><line x1="0" y1="0" x2="1600" y2="0" stroke="#6B6748" stroke-width="6"/><line x1="0" y1="78" x2="1600" y2="78" stroke="#6B6748" stroke-width="6"/><line x1="0" y1="156" x2="1600" y2="156" stroke="#6B6748" stroke-width="6"/><line x1="0" y1="234" x2="1600" y2="234" stroke="#6B6748" stroke-width="6"/><line x1="0" y1="312" x2="1600" y2="312" stroke="#6B6748" stroke-width="6"/><line x1="0" y1="390" x2="1600" y2="390" stroke="#6B6748" stroke-width="6"/><line x1="0" y1="468" x2="1600" y2="468" stroke="#6B6748" stroke-width="6"/><line x1="0" y1="546" x2="1600" y2="546" stroke="#6B6748" stroke-width="6"/><line x1="0" y1="624" x2="1600" y2="624" stroke="#6B6748" stroke-width="6"/><line x1="0" y1="0" x2="0" y2="700" stroke="#6B6748" stroke-width="6"/><line x1="78" y1="0" x2="78" y2="700" stroke="#6B6748" stroke-width="6"/><line x1="156" y1="0" x2="156" y2="700" stroke="#6B6748" stroke-width="6"/><line x1="234" y1="0" x2="234" y2="700" stroke="#6B6748" stroke-width="6"/><line x1="312" y1="0" x2="312" y2="700" stroke="#6B6748" stroke-width="6"/><line x1="390" y1="0" x2="390" y2="700" stroke="#6B6748" stroke-width="6"/><line x1="468" y1="0" x2="468" y2="700" stroke="#6B6748" stroke-width="6"/><line x1="546" y1="0" x2="546" y2="700" stroke="#6B6748" stroke-width="6"/><line x1="624" y1="0" x2="624" y2="700" stroke="#6B6748" stroke-width="6"/><line x1="702" y1="0" x2="702" y2="700" stroke="#6B6748" stroke-width="6"/><line x1="780" y1="0" x2="780" y2="700" stroke="#6B6748" stroke-width="6"/><line x1="858" y1="0" x2="858" y2="700" stroke="#6B6748" stroke-width="6"/><line x1="936" y1="0" x2="936" y2="700" stroke="#6B6748" stroke-width="6"/><line x1="1014" y1="0" x2="1014" y2="700" stroke="#6B6748" stroke-width="6"/><line x1="1092" y1="0" x2="1092" y2="700" stroke="#6B6748" stroke-width="6"/><line x1="1170" y1="0" x2="1170" y2="700" stroke="#6B6748" stroke-width="6"/><line x1="1248" y1="0" x2="1248" y2="700" stroke="#6B6748" stroke-width="6"/><line x1="1326" y1="0" x2="1326" y2="700" stroke="#6B6748" stroke-width="6"/><line x1="1404" y1="0" x2="1404" y2="700" stroke="#6B6748" stroke-width="6"/><line x1="1482" y1="0" x2="1482" y2="700" stroke="#6B6748" stroke-width="6"/><line x1="1560" y1="0" x2="1560" y2="700" stroke="#6B6748" stroke-width="6"/><line x1="1638" y1="0" x2="1638" y2="700" stroke="#6B6748" stroke-width="6"/><rect y="700" width="1600" height="200" fill="#8D8B79"/><path d="M-40 900 L20 700 L30 700 L-30 900 Z" fill="#6B6748" opacity=".5"/><path d="M56 900 L116 700 L126 700 L66 900 Z" fill="#6B6748" opacity=".5"/><path d="M152 900 L212 700 L222 700 L162 900 Z" fill="#6B6748" opacity=".5"/><path d="M248 900 L308 700 L318 700 L258 900 Z" fill="#6B6748" opacity=".5"/><path d="M344 900 L404 700 L414 700 L354 900 Z" fill="#6B6748" opacity=".5"/><path d="M440 900 L500 700 L510 700 L450 900 Z" fill="#6B6748" opacity=".5"/><path d="M536 900 L596 700 L606 700 L546 900 Z" fill="#6B6748" opacity=".5"/><path d="M632 900 L692 700 L702 700 L642 900 Z" fill="#6B6748" opacity=".5"/><path d="M728 900 L788 700 L798 700 L738 900 Z" fill="#6B6748" opacity=".5"/><path d="M824 900 L884 700 L894 700 L834 900 Z" fill="#6B6748" opacity=".5"/><path d="M920 900 L980 700 L990 700 L930 900 Z" fill="#6B6748" opacity=".5"/><path d="M1016 900 L1076 700 L1086 700 L1026 900 Z" fill="#6B6748" opacity=".5"/><path d="M1112 900 L1172 700 L1182 700 L1122 900 Z" fill="#6B6748" opacity=".5"/><path d="M1208 900 L1268 700 L1278 700 L1218 900 Z" fill="#6B6748" opacity=".5"/><path d="M1304 900 L1364 700 L1374 700 L1314 900 Z" fill="#6B6748" opacity=".5"/><path d="M1400 900 L1460 700 L1470 700 L1410 900 Z" fill="#6B6748" opacity=".5"/><path d="M1496 900 L1556 700 L1566 700 L1506 900 Z" fill="#6B6748" opacity=".5"/><path d="M1592 900 L1652 700 L1662 700 L1602 900 Z" fill="#6B6748" opacity=".5"/><path d="M1688 900 L1748 700 L1758 700 L1698 900 Z" fill="#6B6748" opacity=".5"/><rect y="694" width="1600" height="10" fill="#000" opacity=".16"/><rect x="120" y="520" width="460" height="180" rx="8" fill="#A0967C"/><rect x="110" y="498" width="480" height="30" rx="8" fill="#8E8676"/><rect x="150" y="548" width="180" height="130" rx="6" fill="none" stroke="#000" stroke-opacity=".12" stroke-width="5"/><rect x="370" y="548" width="180" height="130" rx="6" fill="none" stroke="#000" stroke-opacity=".12" stroke-width="5"/><ellipse cx="350" cy="508" rx="96" ry="26" fill="#C2BBA6"/><path d="M330 442 q0 -44 30 -44 q30 0 30 40 v26" fill="none" stroke="#AEB4B6" stroke-width="12" stroke-linecap="round"/><rect x="170" y="150" width="360" height="270" rx="8" fill="#9FAAA8" stroke="#A0967C" stroke-width="14"/><path d="M186 400 L340 166 L420 166 L206 416 Z" fill="#FFFFFF" opacity=".22"/><rect x="900" y="120" width="600" height="580" rx="6" fill="#A9B2AC" opacity=".5"/><rect x="900" y="120" width="600" height="580" rx="6" fill="none" stroke="#8E9A94" stroke-width="14"/><line x1="1200" y1="120" x2="1200" y2="700" stroke="#8E9A94" stroke-width="12"/><path d="M1246 160 q0 -34 40 -34 h60" fill="none" stroke="#AEB4B6" stroke-width="12" stroke-linecap="round"/><ellipse cx="1246" cy="176" rx="30" ry="12" fill="#B8BEC0"/><rect x="654" y="470" width="120" height="150" rx="10" fill="#C2BBA6"/><ellipse cx="714" cy="640" rx="76" ry="34" fill="#C2BBA6"/><ellipse cx="714" cy="636" rx="52" ry="20" fill="#9E9884"/><rect x="686" y="620" width="56" height="70" rx="8" fill="#C2BBA6"/><g opacity=".55"><path d="M930 150 q14 140 -6 300 q-10 90 4 220" stroke="#D8CFA8" stroke-width="10" fill="none" opacity=".55"/><path d="M976 150 q14 140 -6 300 q-10 90 4 220" stroke="#D8CFA8" stroke-width="10" fill="none" opacity=".55"/><path d="M1022 150 q14 140 -6 300 q-10 90 4 220" stroke="#D8CFA8" stroke-width="10" fill="none" opacity=".55"/><path d="M1068 150 q14 140 -6 300 q-10 90 4 220" stroke="#D8CFA8" stroke-width="10" fill="none" opacity=".55"/><path d="M1114 150 q14 140 -6 300 q-10 90 4 220" stroke="#D8CFA8" stroke-width="10" fill="none" opacity=".55"/><path d="M1160 150 q14 140 -6 300 q-10 90 4 220" stroke="#D8CFA8" stroke-width="10" fill="none" opacity=".55"/><path d="M1206 150 q14 140 -6 300 q-10 90 4 220" stroke="#D8CFA8" stroke-width="10" fill="none" opacity=".55"/><path d="M1252 150 q14 140 -6 300 q-10 90 4 220" stroke="#D8CFA8" stroke-width="10" fill="none" opacity=".55"/><path d="M1298 150 q14 140 -6 300 q-10 90 4 220" stroke="#D8CFA8" stroke-width="10" fill="none" opacity=".55"/><path d="M1344 150 q14 140 -6 300 q-10 90 4 220" stroke="#D8CFA8" stroke-width="10" fill="none" opacity=".55"/><path d="M1390 150 q14 140 -6 300 q-10 90 4 220" stroke="#D8CFA8" stroke-width="10" fill="none" opacity=".55"/><path d="M1436 150 q14 140 -6 300 q-10 90 4 220" stroke="#D8CFA8" stroke-width="10" fill="none" opacity=".55"/><path d="M1482 150 q14 140 -6 300 q-10 90 4 220" stroke="#D8CFA8" stroke-width="10" fill="none" opacity=".55"/></g><ellipse cx="1180" cy="470" rx="200" ry="170" fill="#A8996A" opacity=".45" filter="url(#soft)"/><rect x="150" y="446" width="34" height="56" rx="5" fill="#6E7A55"/><rect x="192" y="458" width="26" height="44" rx="5" fill="#8A5F62"/><rect x="226" y="440" width="22" height="62" rx="4" fill="#5F6E8A"/><rect x="452" y="452" width="40" height="50" rx="6" fill="#9A8E6E"/><rect x="500" y="466" width="24" height="36" rx="4" fill="#7E8A6A"/><path d="M410 500 q30 -16 58 -2 l-4 6 q-26 -12 -54 2 Z" fill="#B0A896"/><path d="M330 806 q70 -56 168 -20 q70 26 6 60 q-100 32 -174 -40 Z" fill="#5E6672"/><path d="M600 850 q56 -40 130 -14 q52 20 2 44 q-78 24 -132 -30 Z" fill="#767E8C"/><g opacity=".5" fill="#CFC6A2"><circle cx="250" cy="220" r="9"/><circle cx="300" cy="266" r="6"/><circle cx="356" cy="212" r="8"/><circle cx="420" cy="288" r="7"/><circle cx="286" cy="340" r="10"/><circle cx="452" cy="196" r="6"/></g><g opacity="0.6"><ellipse cx="714" cy="682" rx="130" ry="34" fill="#6E5A3A" opacity="0.6" filter="url(#soft)"/><ellipse cx="350" cy="700" rx="180" ry="40" fill="#6E5A3A" opacity="0.45" filter="url(#soft)"/><ellipse cx="1200" cy="690" rx="220" ry="40" fill="#6E5A3A" opacity="0.5" filter="url(#soft)"/><ellipse cx="1000" cy="400" rx="150" ry="130" fill="#6E5A3A" opacity="0.3" filter="url(#soft)"/><ellipse cx="120" cy="120" rx="130" ry="100" fill="#6E5A3A" opacity="0.3" filter="url(#soft)"/><ellipse cx="860" cy="820" rx="200" ry="50" fill="#6E5A3A" opacity="0.4" filter="url(#soft)"/></g><g opacity=".35" stroke="#6E5A3A" stroke-width="7" fill="none"><path d="M0 234 h1600"/><path d="M0 546 h900"/><path d="M546 0 v700"/></g><rect width="1600" height="900" fill="#4A3510" opacity=".11"/><rect width="1600" height="900" fill="#120C04" opacity=".07"/><rect width="1600" height="900" filter="url(#grain)" opacity=".09"/><rect width="1600" height="900" fill="url(#vign)"/></svg>