<svg xmlns="http://www.w3.org/2000/svg" viewBox="0 0 1600 900" width="1600" height="900"><defs>
  <linearGradient id="dayLight" x1="0" y1="0" x2="1" y2="1">
    <stop offset="0" stop-color="#FFF8E7" stop-opacity=".85"/>
    <stop offset="1" stop-color="#FFF8E7" stop-opacity="0"/>
  </linearGradient>
  <linearGradient id="glassG" x1="0" y1="0" x2="1" y2="1">
    <stop offset="0" stop-color="#DFF1FA"/><stop offset="1" stop-color="#B8DCEC"/>
  </linearGradient>
  <radialGradient id="vign" cx="50%" cy="45%" r="75%">
    <stop offset="55%" stop-color="#000" stop-opacity="0"/>
    <stop offset="100%" stop-color="#000" stop-opacity=".20"/>
  </radialGradient>
  <filter id="soft"><feGaussianBlur stdDeviation="10"/></filter>
  <filter id="soft3"><feGaussianBlur stdDeviation="3"/></filter>
  <filter id="grain">
    <feTurbulence type="fractalNoise" baseFrequency="0.9" numOctaves="3"/>
    <feColorMatrix type="saturate" values="0"/>
  </filter>
  
</defs><rect width="1600" height="900" fill="#B9AC98"/><rect y="600" width="1600" height="300" fill="#7E6A4E"/><rect x="0" y="600" width="4" height="300" fill="#000" opacity=".07"/><rect x="120" y="600" width="4" height="300" fill="#000" opacity=".07"/><rect x="240" y="600" width="4" height="300" fill="#000" opacity=".07"/><rect x="360" y="600" width="4" height="300" fill="#000" opacity=".07"/><rect x="480" y="600" width="4" height="300" fill="#000" opacity=".07"/><rect x="600" y="600" width="4" height="300" fill="#000" opacity=".07"/><rect x="720" y="600" width="4" height="300" fill="#000" opacity=".07"/><rect x="840" y="600" width="4" height="300" fill="#000" opacity=".07"/><rect x="960" y="600" width="4" height="300" fill="#000" opacity=".07"/><rect x="1080" y="600" width="4" height="300" fill="#000" opacity=".07"/><rect x="1200" y="600" width="4" height="300" fill="#000" opacity=".07"/><rect x="1320" y="600" width="4" height="300" fill="#000" opacity=".07"/><rect x="1440" y="600" width="4" height="300" fill="#000" opacity=".07"/><rect x="1560" y="600" width="4" height="300" fill="#000" opacity=".07"/><rect y="594" width="1600" height="10" fill="#000" opacity=".15"/><rect x="1120" y="120" width="380" height="330" rx="5" fill="#FFFFFF" opacity=".92"/><rect x="1136" y="136" width="348" height="298" fill="url(#glassG)"/><rect x="1136" y="136" width="348" height="298" fill="#7A6A45" opacity=".3"/><rect x="1136" y="150" width="348" height="12" rx="3" fill="#FFFFFF" opacity=".72"/><rect x="1136" y="176" width="348" height="12" rx="3" fill="#FFFFFF" opacity=".72"/><rect x="1136" y="202" width="348" height="12" rx="3" fill="#FFFFFF" opacity=".72"/><rect x="1136" y="228" width="348" height="12" rx="3" fill="#FFFFFF" opacity=".72"/><rect x="1136" y="254" width="348" height="12" rx="3" fill="#FFFFFF" opacity=".72"/><rect x="1136" y="280" width="348" height="12" rx="3" fill="#FFFFFF" opacity=".72"/><rect x="1120" y="120" width="380" height="330" rx="5" fill="none" stroke="#D8D2C6" stroke-width="12"/><rect x="90" y="250" width="300" height="16" rx="4" fill="#6B5336"/><rect x="90" y="400" width="300" height="16" rx="4" fill="#6B5336"/><rect x="110" y="192" width="22" height="58" rx="2" fill="#8A5A4A"/><rect x="138" y="192" width="18" height="58" rx="2" fill="#5A6E7A"/><rect x="162" y="192" width="24" height="58" rx="2" fill="#7A6A4A"/><rect x="192" y="192" width="16" height="58" rx="2" fill="#6A7A5A"/><rect x="214" y="192" width="20" height="58" rx="2" fill="#8A7A5A"/><g transform="rotate(-6 700 210)"><rect x="640" y="150" width="130" height="120" rx="4" fill="#DCD4C4" stroke="#6B5336" stroke-width="9"/><path d="M652 258 l38 -52 l30 32 l26 -32 l32 52 Z" fill="#8FA57E"/></g><rect x="800" y="176" width="104" height="94" rx="4" fill="#DCD4C4" stroke="#6B5336" stroke-width="9"/><circle cx="852" cy="216" r="22" fill="#C7A05A"/><ellipse cx="720" cy="778" rx="470" ry="104" fill="#93805F"/><ellipse cx="720" cy="778" rx="400" ry="82" fill="none" stroke="#FFF" stroke-opacity=".28" stroke-width="7"/><rect x="330" y="420" width="600" height="140" rx="26" fill="#5A636D"/><rect x="352" y="536" width="556" height="104" rx="20" fill="#6E7883"/><rect x="306" y="470" width="66" height="176" rx="24" fill="#5A636D"/><rect x="888" y="470" width="66" height="176" rx="24" fill="#5A636D"/><rect x="398" y="446" width="144" height="104" rx="16" fill="#6E7883" transform="rotate(-7 470 500)"/><rect x="558" y="446" width="144" height="104" rx="16" fill="#6E7883" transform="rotate(-7 630 500)"/><rect x="718" y="446" width="144" height="104" rx="16" fill="#6E7883" transform="rotate(-7 790 500)"/><rect x="366" y="640" width="30" height="30" rx="6" fill="#6B5336"/><rect x="864" y="640" width="30" height="30" rx="6" fill="#6B5336"/><rect x="540" y="700" width="380" height="22" rx="8" fill="#6B5336"/><rect x="566" y="722" width="20" height="70" rx="6" fill="#6B5336"/><rect x="874" y="722" width="20" height="70" rx="6" fill="#6B5336"/><rect x="1040" y="470" width="12" height="190" fill="#6B5336"/><path d="M996 470 l16 -84 h72 l16 84 Z" fill="#B6A886"/><ellipse cx="1046" cy="662" rx="46" ry="12" fill="#6B5336"/><path d="M360 448 q80 -40 150 12 q60 44 -20 66 q-90 22 -130 -20 Z" fill="#7A3F43"/><path d="M700 460 q90 -34 150 20 q40 42 -40 56 q-96 12 -110 -76 Z" fill="#3E4E6C"/><path d="M566 556 q120 -26 210 22 q-100 40 -210 -22 Z" fill="#5C4A70" opacity=".95"/><rect x="588" y="656" width="94" height="46" rx="4" fill="#C2A06A"/><path d="M588 656 h94 v-10 h-94 Z" fill="#D8BA86"/><rect x="700" y="668" width="34" height="34" rx="4" fill="#DCD4C4"/><rect x="746" y="662" width="28" height="40" rx="4" fill="#B6AEA0"/><ellipse cx="830" cy="694" rx="30" ry="9" fill="#9A9286"/><rect x="806" y="674" width="48" height="22" rx="3" fill="#AEA69A"/><path d="M420 828 l70 -16 l10 26 l-70 16 Z" fill="#C9C1B1"/><path d="M448 856 l66 -12 l8 24 l-66 12 Z" fill="#D3CBBB"/><path d="M980 812 q40 -22 78 2 q-30 30 -78 -2 Z" fill="#6E5F4A"/><path d="M1024 846 q42 -20 76 6 q-34 26 -76 -6 Z" fill="#7C6C54"/><circle cx="330" cy="852" r="20" fill="#8A6A4A"/><g opacity="0.55"><ellipse cx="700" cy="790" rx="150" ry="40" fill="#6E5A3A" opacity="0.5" filter="url(#soft)"/><ellipse cx="520" cy="812" rx="110" ry="32" fill="#6E5A3A" opacity="0.45" filter="url(#soft)"/><ellipse cx="900" cy="806" rx="130" ry="36" fill="#6E5A3A" opacity="0.4" filter="url(#soft)"/><ellipse cx="240" cy="330" rx="120" ry="80" fill="#6E5A3A" opacity="0.3" filter="url(#soft)"/><ellipse cx="1300" cy="560" rx="140" ry="50" fill="#6E5A3A" opacity="0.3" filter="url(#soft)"/><ellipse cx="760" cy="210" rx="130" ry="70" fill="#6E5A3A" opacity="0.25" filter="url(#soft)"/></g><path d="M1600 0 L1450 0 M1600 0 L1600 150 M1600 0 L1494 106 M1572 0 q-42 42 0 86" fill="none" stroke="#FFFFFF" stroke-width="3" opacity=".2"/><rect width="1600" height="900" fill="#4A3510" opacity=".11"/><rect width="1600" height="900" fill="#120C04" opacity=".07"/><rect width="1600" height="900" filter="url(#grain)" opacity=".09"/><rect width="1600" height="900" fill="url(#vign)"/></svg>